# xmcd
#
# Track frame offsets:
#	150
#	12800
#	28432
#	46410
#	63122
#	77600
#	93475
#	107750
#	121152
#	136532
#
# Disc length: 2067 seconds
#
# Revision: 0
# Processed by: cddbd v1.5.2PL0 Copyright (c) Steve Scherf et al.
# Submitted via: audiograbber 1.83.01
#
DISCID=7408110a
DTITLE=Pam Tillis - Put Yourself In My Place
DYEAR=1991
DGENRE=Country
TTITLE0=Put Yourself In My Place
TTITLE1=Melancholy Child
TTITLE2=Maybe It Was Memphis
TTITLE3=Blue Rose Is
TTITLE4=Don't Tell Me What To Do
TTITLE5=One Of Those Things
TTITLE6=Draggin' My Chains
TTITLE7=Ancient History
TTITLE8=I've Seen Enough To Know
TTITLE9=Already Fallen
EXTD=
EXTT0=
EXTT1=
EXTT2=
EXTT3=
EXTT4=
EXTT5=
EXTT6=
EXTT7=
EXTT8=
EXTT9=
PLAYORDER=
